<?xml version="1.0" standalone="no"?><!DOCTYPE svg PUBLIC "-//W3C//DTD SVG 1.1//EN"
        "http://www.w3.org/Graphics/SVG/1.1/DTD/svg11.dtd">
<svg class="icon" viewBox="0 0 1025 1024" version="1.1" xmlns="http://www.w3.org/2000/svg"
     width="48.046875" height="48">
    <path d="M951.31 575.21c0 195.08-195.42 303.23-436.48 303.23S78.35 770.29 78.35 575.21 273.77 192 514.83 192s436.48 188.13 436.48 383.21z"
          fill="#C3CBD8"/>
    <path d="M907.31 511.21c0 195.08-195.42 303.23-436.48 303.23-150.66 0-283.5-42.25-361.93-121.56C86 669.69 9.4 406.31 280.4 260.31c296.09-159.52 540.75 19.22 578 81.79 31.25 52.46 48.91 110.47 48.91 169.11z"
          fill="#E4E9F2"/>
    <path d="M643.4 200.31s136-81 188-41 55 208 55 208-86-86-127-104-116-63-116-63zM143.4 374.31c0-3 58-73 104-101s140-74 140-74-147.95-79.54-203-41c-70 49-41 216-41 216z"
          fill="#C3CBD8"/>
    <path d="M326.4 429.31a33 41 0 1 0 66 0 33 41 0 1 0-66 0Z" fill="#FFFFFF"/>
    <path d="M632.4 434.31a33 41 0 1 0 66 0 33 41 0 1 0-66 0Z" fill="#FFFFFF"/>
    <path d="M678 376.06c-35.16 0-63.67 38-63.67 84.89s28.5 84.89 63.67 84.89 63.67-38 63.67-84.89-28.51-84.89-63.67-84.89z m-12.73 83.83c-14.94 0-27.06-13.78-27.06-30.77s12.11-30.77 27.06-30.77 27.06 13.78 27.06 30.77-12.12 30.76-27.06 30.76zM348 376.06c-35.16 0-63.67 38-63.67 84.89s28.5 84.89 63.67 84.89 63.67-38 63.67-84.89-28.51-84.89-63.67-84.89z m12.73 83.83c-14.94 0-27.06-13.78-27.06-30.77s12.11-30.77 27.06-30.77 27.06 13.78 27.06 30.77-12.11 30.76-27.06 30.76zM529.4 608.72h-32.8A29.32 29.32 0 0 0 467.37 638v3.57a29.32 29.32 0 0 0 29.23 29.23h1.4v22.6a15 15 0 0 0 30 0v-22.65h1.4a29.32 29.32 0 0 0 29.23-29.23V638a29.32 29.32 0 0 0-29.23-29.28z"
          fill="#192B3A"/>
    <path d="M1011.21 601.17L960.35 597q1.09-12.45 1.1-25.21 0-10.86-0.8-21.75l50.55-4.1a15 15 0 1 0-2.42-29.9L957 520.28c-8.09-47.61-27.12-94.72-55.68-138.36a527 527 0 0 0 3.57-98.16c-4.53-72.53-25.74-120.11-63-141.43-35-20-83.9-17.61-145.4 7.06a486.57 486.57 0 0 0-74.33 38 463.12 463.12 0 0 0-218.32 0 486.57 486.57 0 0 0-74.33-38c-61.5-24.68-110.42-27.05-145.4-7.06-37.31 21.32-58.52 68.9-63 141.43a527 527 0 0 0 3.57 98.16C96.08 425.56 77 472.67 69 520.28l-51.75-4.2A15 15 0 1 0 14.79 546l50.55 4.1q-0.79 10.88-0.8 21.75 0 12.76 1.1 25.21l-50.86 4.12a15 15 0 0 0 1.2 30h1.23l52.69-4.38a264.53 264.53 0 0 0 30.73 81.2c22.69 39.15 55.48 73.43 97.45 101.91 81 54.93 192.8 85.18 314.92 85.18s234-30.25 314.92-85.18c42-28.48 74.76-62.76 97.45-101.91a264.53 264.53 0 0 0 30.73-81.2l52.69 4.27h1.23a15 15 0 0 0 1.2-30zM707.66 177.23c36.14-14.5 86.18-27.81 119.34-8.86 34.76 19.86 45.26 74.47 48 116.78a484.52 484.52 0 0 1-0.23 60.45 454.5 454.5 0 0 0-45.14-47.6 471.93 471.93 0 0 0-142.29-89.63q-12.62-5.1-25.42-9.44a441 441 0 0 1 45.74-21.7zM151 285.63c2.65-42.5 13.13-97.34 48-117.25 33.06-18.89 82.9-5.71 118.89 8.67a440.36 440.36 0 0 1 46.19 21.86q-12.79 4.34-25.41 9.43A471.93 471.93 0 0 0 196.37 298a454.53 454.53 0 0 0-45.12 47.65 485 485 0 0 1-0.25-60.02z m660.08 499.44c-76 51.59-181.9 80-298.08 80s-222-28.41-298.08-80C152.71 742.86 113.67 688 100 624.35l54.08-4.35a15 15 0 1 0-2.42-29.9l-56.11 4.55q-1-11.24-1-22.79 0-9.64 0.7-19.32l56.41 4.57h1.23a15 15 0 0 0 1.2-30L99 522.71c13-72.83 54.3-144.63 117.65-202.61C298.22 245.43 403.47 204.31 513 204.31s214.78 41.12 296.37 115.79C872.72 378.08 914 449.88 927 522.71l-55.1 4.47a15 15 0 0 0 1.2 30h1.23l56.41-4.57q0.69 9.67 0.7 19.32 0 11.55-1 22.79l-56.11-4.55a15 15 0 0 0-2.42 29.9l54.09 4.28C912.33 688 873.29 742.86 811.08 785.07z"
          fill="#192B3A"/>
    <path d="M689 598.31a44 15 0 1 0 88 0 44 15 0 1 0-88 0Z" fill="#FF99B6"/>
    <path d="M247 598.31a44 15 0 1 0 88 0 44 15 0 1 0-88 0Z" fill="#FF99B6"/>
</svg>