<svg viewBox="0 0 1024 1024" version="1.1" xmlns="http://www.w3.org/2000/svg"
     width="32" height="32">
    <path d="M830.165333 436.544l-92.842666-0.064v-134.4c0-51.52-23.936-101.376-67.968-140.842667-41.792-35.605333-98.944-56.021333-156.821334-56.021333-123.050667 0-223.189333 88.32-223.189333 196.885333v134.122667l-86.506667-0.042667c-25.301333 0-46.677333 20.544-46.677333 44.864v114.026667c0 172.288 160.576 312.469333 357.973333 312.469333 93.525333 0 182.848-32.256 251.498667-90.858666 67.648-57.749333 106.453333-138.517333 106.453333-221.610667v-114.026667c0.021333-21.781333-17.621333-40.490667-41.92-44.501333zM347.413333 302.08c0-76.544 74.090667-138.837333 165.141334-138.837333 44.288 0 87.722667 15.36 118.613333 41.685333 21.952 19.690667 48.128 52.544 48.128 97.152v134.378667l-331.861333-0.213334V302.08z m466.645334 292.949333c0 66.069333-31.381333 130.752-86.08 177.450667-58.154667 49.642667-134.101333 76.970667-213.824 76.970667-165.376 0-299.925333-114.133333-299.925334-254.421334v-100.821333h75.136v1.578667h447.978667v-1.578667h76.736v100.821333z"
          fill="#6c757d"/>
</svg>