<svg viewBox="0 0 1024 1024" version="1.1" xmlns="http://www.w3.org/2000/svg"
     width="32" height="32">
    <path d="M627.925333 587.52c90.453333-40.810667 153.344-128.405333 153.344-229.952 0-140.352-119.829333-254.549333-267.114666-254.549333S247.018667 217.194667 247.018667 357.546667c0 101.546667 62.869333 189.141333 153.344 229.952-141.717333 45.312-244.181333 172.48-244.181334 322.176h58.048c0-155.52 134.549333-282.048 299.925334-282.048S814.08 754.154667 814.08 909.674667h58.048c-0.021333-149.696-102.485333-276.864-244.202667-322.154667zM305.088 357.546667c0-108.352 93.781333-196.501333 209.066667-196.501334s209.066667 88.149333 209.066666 196.501334-93.781333 196.501333-209.066666 196.501333-209.066667-88.149333-209.066667-196.501333z"
          fill="#6c757d"/>
</svg>